<svg xmlns="http://www.w3.org/2000/svg" viewBox="0 0 1920 1080" width="1920" height="1080"><defs></defs><g>
<rect fill="#22272e" x="0" y="0" width="1920" height="1080"/>
<g>
	<g>
		<g transform="matrix(1,0,0,1,0,-16.684596566)">
			<path d="M167.59499999999986,86.20999999999994 C167.59499999999986,86.20999999999994 71.59499999999994,86.20999999999994 71.59499999999994,86.20999999999994 C71.59499999999994,86.20999999999994 71.59499999999996,838.2099999999994 71.59499999999996,838.2099999999994 C71.59499999999996,838.2099999999994 167.59499999999989,838.2099999999994 167.59499999999989,838.2099999999994" transform="matrix(1,0,0,1,909.068713063,74.817944625)" fill="none" stroke="#fefefe" stroke-width="16"/>
		</g>
		<g transform="matrix(1,0,0,1,0,-16.684596566)">
			<path d="M167.59499999999986,86.20999999999994 C167.59499999999986,86.20999999999994 71.59499999999994,86.20999999999994 71.59499999999994,86.20999999999994 C71.59499999999994,86.20999999999994 71.59499999999996,838.2099999999994 71.59499999999996,838.2099999999994 C71.59499999999996,838.2099999999994 167.59499999999989,838.2099999999994 167.59499999999989,838.2099999999994" transform="matrix(-1,0,0,1,1849.773138504,74.817944625)" fill="none" stroke="#fefefe" stroke-width="16"/>
		</g>
		<g transform="matrix(1,0,0,1,0,-16.684596566)">
			<path d="M1671.57876097596,352.43763212544707 Q1651.5121984759598,352.43763212544707 1641.40532347596,337.81700712544705 Q1631.29844847596,323.19638212544703 1631.29844847596,293.807944625447 Q1631.29844847596,264.419507125447 1641.33172972596,249.79888212544702 Q1651.36501097596,235.178257125447 1671.57876097596,235.178257125447 Q1691.64532347596,235.178257125447 1701.75219847596,249.79888212544702 Q1711.85907347596,264.419507125447 1711.85907347596,293.807944625447 Q1711.85907347596,323.19638212544703 1701.82579222596,337.81700712544705 Q1691.7925109759599,352.43763212544707 1671.57876097596,352.43763212544707 Q1671.57876097596,352.43763212544707 1671.57876097596,352.43763212544707 ZM1671.57876097596,339.3134133754471 Q1684.9973547259601,339.3134133754471 1691.42454222596,328.22528837544706 Q1697.85172972596,317.1126321254471 1697.85172972596,293.807944625447 Q1697.85172972596,270.503257125447 1691.42454222596,259.41513212544703 Q1684.9973547259601,248.30247587544702 1671.57876097596,248.30247587544702 Q1658.1601672259599,248.30247587544702 1651.73297972596,259.41513212544703 Q1645.30579222596,270.503257125447 1645.30579222596,293.807944625447 Q1645.30579222596,317.1126321254471 1651.73297972596,328.22528837544706 Q1658.1601672259599,339.3134133754471 1671.57876097596,339.3134133754471 Q1671.57876097596,339.3134133754471 1671.57876097596,339.3134133754471 ZM1641.33172972596,308.502163375447 C1641.33172972596,308.502163375447 1701.3842297259598,263.143882125447 1701.3842297259598,263.143882125447 C1701.3842297259598,263.143882125447 1701.3842297259598,279.113725875447 1701.3842297259598,279.113725875447 C1701.3842297259598,279.113725875447 1641.33172972596,324.4720071254471 1641.33172972596,324.4720071254471 C1641.33172972596,324.4720071254471 1641.33172972596,308.502163375447 1641.33172972596,308.502163375447 ZM1671.57876097596,521.9976321254471 Q1651.5121984759598,521.9976321254471 1641.40532347596,507.37700712544716 Q1631.29844847596,492.75638212544715 1631.29844847596,463.36794462544714 Q1631.29844847596,433.9795071254471 1641.33172972596,419.3588821254471 Q1651.36501097596,404.73825712544715 1671.57876097596,404.73825712544715 Q1691.64532347596,404.73825712544715 1701.75219847596,419.3588821254471 Q1711.85907347596,433.9795071254471 1711.85907347596,463.36794462544714 Q1711.85907347596,492.75638212544715 1701.82579222596,507.37700712544716 Q1691.7925109759599,521.9976321254471 1671.57876097596,521.9976321254471 Q1671.57876097596,521.9976321254471 1671.57876097596,521.9976321254471 ZM1671.57876097596,508.87341337544717 Q1684.9973547259601,508.87341337544717 1691.42454222596,497.7852883754472 Q1697.85172972596,486.67263212544714 1697.85172972596,463.36794462544714 Q1697.85172972596,440.06325712544714 1691.42454222596,428.9751321254471 Q1684.9973547259601,417.8624758754471 1671.57876097596,417.8624758754471 Q1658.1601672259599,417.8624758754471 1651.73297972596,428.9751321254471 Q1645.30579222596,440.06325712544714 1645.30579222596,463.36794462544714 Q1645.30579222596,486.67263212544714 1651.73297972596,497.7852883754472 Q1658.1601672259599,508.87341337544717 1671.57876097596,508.87341337544717 Q1671.57876097596,508.87341337544717 1671.57876097596,508.87341337544717 ZM1641.33172972596,478.06216337544714 C1641.33172972596,478.06216337544714 1701.3842297259598,432.70388212544714 1701.3842297259598,432.70388212544714 C1701.3842297259598,432.70388212544714 1701.3842297259598,448.67372587544713 1701.3842297259598,448.67372587544713 C1701.3842297259598,448.67372587544713 1641.33172972596,494.03200712544714 1641.33172972596,494.03200712544714 C1641.33172972596,494.03200712544714 1641.33172972596,478.06216337544714 1641.33172972596,478.06216337544714 ZM1671.57876097596,691.5576321254473 Q1651.5121984759598,691.5576321254473 1641.40532347596,676.9370071254473 Q1631.29844847596,662.3163821254473 1631.29844847596,632.9279446254473 Q1631.29844847596,603.5395071254472 1641.33172972596,588.9188821254472 Q1651.36501097596,574.2982571254472 1671.57876097596,574.2982571254472 Q1691.64532347596,574.2982571254472 1701.75219847596,588.9188821254472 Q1711.85907347596,603.5395071254472 1711.85907347596,632.9279446254473 Q1711.85907347596,662.3163821254473 1701.82579222596,676.9370071254473 Q1691.7925109759599,691.5576321254473 1671.57876097596,691.5576321254473 Q1671.57876097596,691.5576321254473 1671.57876097596,691.5576321254473 ZM1671.57876097596,678.4334133754473 Q1684.9973547259601,678.4334133754473 1691.42454222596,667.3452883754474 Q1697.85172972596,656.2326321254473 1697.85172972596,632.9279446254473 Q1697.85172972596,609.6232571254473 1691.42454222596,598.5351321254473 Q1684.9973547259601,587.4224758754472 1671.57876097596,587.4224758754472 Q1658.1601672259599,587.4224758754472 1651.73297972596,598.5351321254473 Q1645.30579222596,609.6232571254473 1645.30579222596,632.9279446254473 Q1645.30579222596,656.2326321254473 1651.73297972596,667.3452883754474 Q1658.1601672259599,678.4334133754473 1671.57876097596,678.4334133754473 Q1671.57876097596,678.4334133754473 1671.57876097596,678.4334133754473 ZM1641.33172972596,647.6221633754473 C1641.33172972596,647.6221633754473 1701.3842297259598,602.2638821254473 1701.3842297259598,602.2638821254473 C1701.3842297259598,602.2638821254473 1701.3842297259598,618.2337258754472 1701.3842297259598,618.2337258754472 C1701.3842297259598,618.2337258754472 1641.33172972596,663.5920071254473 1641.33172972596,663.5920071254473 C1641.33172972596,663.5920071254473 1641.33172972596,647.6221633754473 1641.33172972596,647.6221633754473 ZM1078.1187130633618,861.1176800380451 Q1058.052150563362,861.1176800380451 1047.945275563362,846.4970550380451 Q1037.838400563362,831.8764300380451 1037.838400563362,802.4879925380451 Q1037.838400563362,773.0995550380451 1047.8716818133619,758.4789300380451 Q1057.904963063362,743.858305038045 1078.1187130633618,743.858305038045 Q1098.185275563362,743.858305038045 1108.292150563362,758.4789300380451 Q1118.3990255633619,773.0995550380451 1118.3990255633619,802.4879925380451 Q1118.3990255633619,831.8764300380451 1108.365744313362,846.4970550380451 Q1098.332463063362,861.1176800380451 1078.1187130633618,861.1176800380451 Q1078.1187130633618,861.1176800380451 1078.1187130633618,861.1176800380451 ZM1078.1187130633618,847.993461288045 Q1091.537306813362,847.993461288045 1097.964494313362,836.905336288045 Q1104.3916818133619,825.7926800380451 1104.3916818133619,802.4879925380451 Q1104.3916818133619,779.1833050380451 1097.964494313362,768.0951800380449 Q1091.537306813362,756.982523788045 1078.1187130633618,756.982523788045 Q1064.700119313362,756.982523788045 1058.272931813362,768.0951800380449 Q1051.8457443133618,779.1833050380451 1051.8457443133618,802.4879925380451 Q1051.8457443133618,825.7926800380451 1058.272931813362,836.905336288045 Q1064.700119313362,847.993461288045 1078.1187130633618,847.993461288045 Q1078.1187130633618,847.993461288045 1078.1187130633618,847.993461288045 ZM1047.8716818133619,817.182211288045 C1047.8716818133619,817.182211288045 1107.9241818133619,771.8239300380451 1107.9241818133619,771.8239300380451 C1107.9241818133619,771.8239300380451 1107.9241818133619,787.793773788045 1107.9241818133619,787.793773788045 C1107.9241818133619,787.793773788045 1047.8716818133619,833.1520550380451 1047.8716818133619,833.1520550380451 C1047.8716818133619,833.1520550380451 1047.8716818133619,817.182211288045 1047.8716818133619,817.182211288045 ZM1275.9387250415116,861.1176800380451 Q1255.8721625415114,861.1176800380451 1245.7652875415115,846.4970550380451 Q1235.6584125415116,831.8764300380451 1235.6584125415116,802.4879925380451 Q1235.6584125415116,773.0995550380451 1245.6916937915114,758.4789300380451 Q1255.7249750415115,743.858305038045 1275.9387250415116,743.858305038045 Q1296.0052875415115,743.858305038045 1306.1121625415115,758.4789300380451 Q1316.2190375415116,773.0995550380451 1316.2190375415116,802.4879925380451 Q1316.2190375415116,831.8764300380451 1306.1857562915116,846.4970550380451 Q1296.1524750415115,861.1176800380451 1275.9387250415116,861.1176800380451 Q1275.9387250415116,861.1176800380451 1275.9387250415116,861.1176800380451 ZM1275.9387250415116,847.993461288045 Q1289.3573187915115,847.993461288045 1295.7845062915114,836.905336288045 Q1302.2116937915116,825.7926800380451 1302.2116937915116,802.4879925380451 Q1302.2116937915116,779.1833050380451 1295.7845062915114,768.0951800380449 Q1289.3573187915115,756.982523788045 1275.9387250415116,756.982523788045 Q1262.5201312915115,756.982523788045 1256.0929437915115,768.0951800380449 Q1249.6657562915116,779.1833050380451 1249.6657562915116,802.4879925380451 Q1249.6657562915116,825.7926800380451 1256.0929437915115,836.905336288045 Q1262.5201312915115,847.993461288045 1275.9387250415116,847.993461288045 Q1275.9387250415116,847.993461288045 1275.9387250415116,847.993461288045 ZM1245.6916937915114,817.182211288045 C1245.6916937915114,817.182211288045 1305.7441937915114,771.8239300380451 1305.7441937915114,771.8239300380451 C1305.7441937915114,771.8239300380451 1305.7441937915114,787.793773788045 1305.7441937915114,787.793773788045 C1305.7441937915114,787.793773788045 1245.6916937915114,833.1520550380451 1245.6916937915114,833.1520550380451 C1245.6916937915114,833.1520550380451 1245.6916937915114,817.182211288045 1245.6916937915114,817.182211288045 ZM1473.758737019661,861.1176800380451 Q1453.692174519661,861.1176800380451 1443.585299519661,846.4970550380451 Q1433.478424519661,831.8764300380451 1433.478424519661,802.4879925380451 Q1433.478424519661,773.0995550380451 1443.511705769661,758.4789300380451 Q1453.544987019661,743.858305038045 1473.758737019661,743.858305038045 Q1493.825299519661,743.858305038045 1503.932174519661,758.4789300380451 Q1514.0390495196611,773.0995550380451 1514.0390495196611,802.4879925380451 Q1514.0390495196611,831.8764300380451 1504.005768269661,846.4970550380451 Q1493.972487019661,861.1176800380451 1473.758737019661,861.1176800380451 Q1473.758737019661,861.1176800380451 1473.758737019661,861.1176800380451 ZM1473.758737019661,847.993461288045 Q1487.177330769661,847.993461288045 1493.604518269661,836.905336288045 Q1500.0317057696611,825.7926800380451 1500.0317057696611,802.4879925380451 Q1500.0317057696611,779.1833050380451 1493.604518269661,768.0951800380449 Q1487.177330769661,756.982523788045 1473.758737019661,756.982523788045 Q1460.340143269661,756.982523788045 1453.912955769661,768.0951800380449 Q1447.485768269661,779.1833050380451 1447.485768269661,802.4879925380451 Q1447.485768269661,825.7926800380451 1453.912955769661,836.905336288045 Q1460.340143269661,847.993461288045 1473.758737019661,847.993461288045 Q1473.758737019661,847.993461288045 1473.758737019661,847.993461288045 ZM1443.511705769661,817.182211288045 C1443.511705769661,817.182211288045 1503.564205769661,771.8239300380451 1503.564205769661,771.8239300380451 C1503.564205769661,771.8239300380451 1503.564205769661,787.793773788045 1503.564205769661,787.793773788045 C1503.564205769661,787.793773788045 1443.511705769661,833.1520550380451 1443.511705769661,833.1520550380451 C1443.511705769661,833.1520550380451 1443.511705769661,817.182211288045 1443.511705769661,817.182211288045 ZM1682.8876672259598,745.9679925380449 C1682.8876672259598,745.9679925380449 1682.8876672259598,845.859242538045 1682.8876672259598,845.859242538045 C1682.8876672259598,845.859242538045 1710.85329222596,845.859242538045 1710.85329222596,845.859242538045 C1710.85329222596,845.859242538045 1710.85329222596,859.0079925380451 1710.85329222596,859.0079925380451 C1710.85329222596,859.0079925380451 1637.94641722596,859.0079925380451 1637.94641722596,859.0079925380451 C1637.94641722596,859.0079925380451 1637.94641722596,845.859242538045 1637.94641722596,845.859242538045 C1637.94641722596,845.859242538045 1668.90485472596,845.859242538045 1668.90485472596,845.859242538045 C1668.90485472596,845.859242538045 1668.90485472596,751.757367538045 1668.90485472596,751.757367538045 C1668.90485472596,751.757367538045 1673.12422972596,753.8915862880449 1673.12422972596,753.8915862880449 C1673.12422972596,753.8915862880449 1637.94641722596,776.6320550380449 1637.94641722596,776.6320550380449 C1637.94641722596,776.6320550380449 1637.94641722596,761.520805038045 1637.94641722596,761.520805038045 C1637.94641722596,761.520805038045 1662.52672972596,745.9679925380449 1662.52672972596,745.9679925380449 C1662.52672972596,745.9679925380449 1682.8876672259598,745.9679925380449 1682.8876672259598,745.9679925380449 Z" fill="#fff6f6"/>
		</g>
		<g transform="matrix(1,0,0,1,0,-16.684596566)">
			<path d="M1078.1187130633618,691.5576321254462 Q1058.052150563362,691.5576321254462 1047.945275563362,676.9370071254461 Q1037.8384005633618,662.3163821254462 1037.8384005633618,632.9279446254462 Q1037.8384005633618,603.5395071254463 1047.8716818133619,588.9188821254463 Q1057.904963063362,574.2982571254463 1078.1187130633618,574.2982571254463 Q1098.1852755633618,574.2982571254463 1108.2921505633617,588.9188821254463 Q1118.3990255633619,603.5395071254463 1118.3990255633619,632.9279446254462 Q1118.3990255633619,662.3163821254462 1108.3657443133618,676.9370071254461 Q1098.3324630633617,691.5576321254462 1078.1187130633618,691.5576321254462 Q1078.1187130633618,691.5576321254462 1078.1187130633618,691.5576321254462 ZM1078.1187130633618,678.4334133754462 Q1091.5373068133617,678.4334133754462 1097.964494313362,667.3452883754462 Q1104.3916818133619,656.2326321254462 1104.3916818133619,632.9279446254462 Q1104.3916818133619,609.6232571254463 1097.964494313362,598.5351321254464 Q1091.5373068133617,587.4224758754464 1078.1187130633618,587.4224758754464 Q1064.700119313362,587.4224758754464 1058.2729318133618,598.5351321254464 Q1051.8457443133618,609.6232571254463 1051.8457443133618,632.9279446254462 Q1051.8457443133618,656.2326321254462 1058.2729318133618,667.3452883754462 Q1064.700119313362,678.4334133754462 1078.1187130633618,678.4334133754462 Q1078.1187130633618,678.4334133754462 1078.1187130633618,678.4334133754462 ZM1047.8716818133619,647.6221633754462 C1047.8716818133619,647.6221633754462 1107.9241818133619,602.2638821254463 1107.9241818133619,602.2638821254463 C1107.9241818133619,602.2638821254463 1107.9241818133619,618.2337258754463 1107.9241818133619,618.2337258754463 C1107.9241818133619,618.2337258754463 1047.8716818133619,663.5920071254462 1047.8716818133619,663.5920071254462 C1047.8716818133619,663.5920071254462 1047.8716818133619,647.6221633754462 1047.8716818133619,647.6221633754462 ZM1275.938725041511,691.5576321254462 Q1255.872162541511,691.5576321254462 1245.765287541511,676.9370071254461 Q1235.658412541511,662.3163821254462 1235.658412541511,632.9279446254462 Q1235.658412541511,603.5395071254463 1245.691693791511,588.9188821254463 Q1255.724975041511,574.2982571254463 1275.938725041511,574.2982571254463 Q1296.0052875415108,574.2982571254463 1306.1121625415108,588.9188821254463 Q1316.219037541511,603.5395071254463 1316.219037541511,632.9279446254462 Q1316.219037541511,662.3163821254462 1306.1857562915109,676.9370071254461 Q1296.152475041511,691.5576321254462 1275.938725041511,691.5576321254462 Q1275.938725041511,691.5576321254462 1275.938725041511,691.5576321254462 ZM1275.938725041511,678.4334133754462 Q1289.3573187915108,678.4334133754462 1295.784506291511,667.3452883754462 Q1302.211693791511,656.2326321254462 1302.211693791511,632.9279446254462 Q1302.211693791511,609.6232571254463 1295.784506291511,598.5351321254464 Q1289.3573187915108,587.4224758754464 1275.938725041511,587.4224758754464 Q1262.520131291511,587.4224758754464 1256.092943791511,598.5351321254464 Q1249.6657562915111,609.6232571254463 1249.6657562915111,632.9279446254462 Q1249.6657562915111,656.2326321254462 1256.092943791511,667.3452883754462 Q1262.520131291511,678.4334133754462 1275.938725041511,678.4334133754462 Q1275.938725041511,678.4334133754462 1275.938725041511,678.4334133754462 ZM1245.691693791511,647.6221633754462 C1245.691693791511,647.6221633754462 1305.744193791511,602.2638821254463 1305.744193791511,602.2638821254463 C1305.744193791511,602.2638821254463 1305.744193791511,618.2337258754463 1305.744193791511,618.2337258754463 C1305.744193791511,618.2337258754463 1245.691693791511,663.5920071254462 1245.691693791511,663.5920071254462 C1245.691693791511,663.5920071254462 1245.691693791511,647.6221633754462 1245.691693791511,647.6221633754462 ZM1485.06764326966,576.4079446254464 C1485.06764326966,576.4079446254464 1485.06764326966,676.2991946254461 1485.06764326966,676.2991946254461 C1485.06764326966,676.2991946254461 1513.03326826966,676.2991946254461 1513.03326826966,676.2991946254461 C1513.03326826966,676.2991946254461 1513.03326826966,689.4479446254462 1513.03326826966,689.4479446254462 C1513.03326826966,689.4479446254462 1440.1263932696602,689.4479446254462 1440.1263932696602,689.4479446254462 C1440.1263932696602,689.4479446254462 1440.1263932696602,676.2991946254461 1440.1263932696602,676.2991946254461 C1440.1263932696602,676.2991946254461 1471.0848307696601,676.2991946254461 1471.0848307696601,676.2991946254461 C1471.0848307696601,676.2991946254461 1471.0848307696601,582.1973196254463 1471.0848307696601,582.1973196254463 C1471.0848307696601,582.1973196254463 1475.30420576966,584.3315383754464 1475.30420576966,584.3315383754464 C1475.30420576966,584.3315383754464 1440.1263932696602,607.0720071254462 1440.1263932696602,607.0720071254462 C1440.1263932696602,607.0720071254462 1440.1263932696602,591.9607571254463 1440.1263932696602,591.9607571254463 C1440.1263932696602,591.9607571254463 1464.70670576966,576.4079446254464 1464.70670576966,576.4079446254464 C1464.70670576966,576.4079446254464 1485.06764326966,576.4079446254464 1485.06764326966,576.4079446254464 Z" fill="#6ea9f3"/>
		</g>
		<g transform="matrix(1,0,0,1,0,-16.684596566)">
			<path d="M1089.4276193133614,237.28794462544687 C1089.4276193133614,237.28794462544687 1089.4276193133614,337.179194625446 1089.4276193133614,337.179194625446 C1089.4276193133614,337.179194625446 1117.393244313361,337.179194625446 1117.393244313361,337.179194625446 C1117.393244313361,337.179194625446 1117.393244313361,350.32794462544587 1117.393244313361,350.32794462544587 C1117.393244313361,350.32794462544587 1044.4863693133618,350.32794462544587 1044.4863693133618,350.32794462544587 C1044.4863693133618,350.32794462544587 1044.4863693133618,337.179194625446 1044.4863693133618,337.179194625446 C1044.4863693133618,337.179194625446 1075.4448068133615,337.179194625446 1075.4448068133615,337.179194625446 C1075.4448068133615,337.179194625446 1075.4448068133615,243.07731962544682 1075.4448068133615,243.07731962544682 C1075.4448068133615,243.07731962544682 1079.6641818133614,245.2115383754468 1079.6641818133614,245.2115383754468 C1079.6641818133614,245.2115383754468 1044.4863693133618,267.9520071254466 1044.4863693133618,267.9520071254466 C1044.4863693133618,267.9520071254466 1044.4863693133618,252.84075712544671 1044.4863693133618,252.84075712544671 C1044.4863693133618,252.84075712544671 1069.0666818133616,237.28794462544687 1069.0666818133616,237.28794462544687 C1069.0666818133616,237.28794462544687 1089.4276193133614,237.28794462544687 1089.4276193133614,237.28794462544687 ZM1275.938725041509,352.4376321254458 Q1255.8721625415094,352.4376321254458 1245.7652875415095,337.81700712544597 Q1235.6584125415095,323.1963821254461 1235.6584125415095,293.80794462544634 Q1235.6584125415095,264.4195071254466 1245.6916937915094,249.79888212544677 Q1255.7249750415094,235.17825712544686 1275.938725041509,235.17825712544686 Q1296.005287541509,235.17825712544686 1306.112162541509,249.79888212544677 Q1316.219037541509,264.4195071254466 1316.219037541509,293.80794462544634 Q1316.219037541509,323.1963821254461 1306.1857562915088,337.81700712544597 Q1296.152475041509,352.4376321254458 1275.938725041509,352.4376321254458 Q1275.938725041509,352.4376321254458 1275.938725041509,352.4376321254458 ZM1275.938725041509,339.313413375446 Q1289.357318791509,339.313413375446 1295.784506291509,328.2252883754461 Q1302.2116937915089,317.11263212544617 1302.2116937915089,293.80794462544634 Q1302.2116937915089,270.50325712544657 1295.784506291509,259.4151321254467 Q1289.357318791509,248.30247587544676 1275.938725041509,248.30247587544676 Q1262.5201312915092,248.30247587544676 1256.0929437915092,259.4151321254467 Q1249.6657562915093,270.50325712544657 1249.6657562915093,293.80794462544634 Q1249.6657562915093,317.11263212544617 1256.0929437915092,328.2252883754461 Q1262.5201312915092,339.313413375446 1275.938725041509,339.313413375446 Q1275.938725041509,339.313413375446 1275.938725041509,339.313413375446 ZM1245.6916937915094,308.50216337544623 C1245.6916937915094,308.50216337544623 1305.744193791509,263.1438821254466 1305.744193791509,263.1438821254466 C1305.744193791509,263.1438821254466 1305.744193791509,279.1137258754465 1305.744193791509,279.1137258754465 C1305.744193791509,279.1137258754465 1245.6916937915094,324.4720071254461 1245.6916937915094,324.4720071254461 C1245.6916937915094,324.4720071254461 1245.6916937915094,308.50216337544623 1245.6916937915094,308.50216337544623 ZM1473.7587370196568,352.4376321254458 Q1453.692174519657,352.4376321254458 1443.5852995196572,337.81700712544597 Q1433.4784245196572,323.1963821254461 1433.4784245196572,293.80794462544634 Q1433.4784245196572,264.4195071254466 1443.511705769657,249.79888212544677 Q1453.5449870196571,235.17825712544686 1473.7587370196568,235.17825712544686 Q1493.8252995196567,235.17825712544686 1503.9321745196567,249.79888212544677 Q1514.0390495196566,264.4195071254466 1514.0390495196566,293.80794462544634 Q1514.0390495196566,323.1963821254461 1504.0057682696565,337.81700712544597 Q1493.9724870196567,352.4376321254458 1473.7587370196568,352.4376321254458 Q1473.7587370196568,352.4376321254458 1473.7587370196568,352.4376321254458 ZM1473.7587370196568,339.313413375446 Q1487.1773307696567,339.313413375446 1493.6045182696566,328.2252883754461 Q1500.0317057696566,317.11263212544617 1500.0317057696566,293.80794462544634 Q1500.0317057696566,270.50325712544657 1493.6045182696566,259.4151321254467 Q1487.1773307696567,248.30247587544676 1473.7587370196568,248.30247587544676 Q1460.340143269657,248.30247587544676 1453.912955769657,259.4151321254467 Q1447.485768269657,270.50325712544657 1447.485768269657,293.80794462544634 Q1447.485768269657,317.11263212544617 1453.912955769657,328.2252883754461 Q1460.340143269657,339.313413375446 1473.7587370196568,339.313413375446 Q1473.7587370196568,339.313413375446 1473.7587370196568,339.313413375446 ZM1443.511705769657,308.50216337544623 C1443.511705769657,308.50216337544623 1503.5642057696566,263.1438821254466 1503.5642057696566,263.1438821254466 C1503.5642057696566,263.1438821254466 1503.5642057696566,279.1137258754465 1503.5642057696566,279.1137258754465 C1503.5642057696566,279.1137258754465 1443.511705769657,324.4720071254461 1443.511705769657,324.4720071254461 C1443.511705769657,324.4720071254461 1443.511705769657,308.50216337544623 1443.511705769657,308.50216337544623 Z" fill="#e86060"/>
		</g>
		<g transform="matrix(1,0,0,1,0,-16.684596566)">
			<path d="M1078.1187130633616,521.9976321254451 Q1058.0521505633617,521.9976321254451 1047.9452755633617,507.37700712544523 Q1037.8384005633618,492.7563821254453 1037.8384005633618,463.3679446254455 Q1037.8384005633618,433.9795071254457 1047.8716818133619,419.3588821254458 Q1057.9049630633617,404.7382571254459 1078.1187130633616,404.7382571254459 Q1098.1852755633615,404.7382571254459 1108.2921505633615,419.3588821254458 Q1118.3990255633614,433.9795071254457 1118.3990255633614,463.3679446254455 Q1118.3990255633614,492.7563821254453 1108.3657443133613,507.37700712544523 Q1098.3324630633615,521.9976321254451 1078.1187130633616,521.9976321254451 Q1078.1187130633616,521.9976321254451 1078.1187130633616,521.9976321254451 ZM1078.1187130633616,508.8734133754452 Q1091.5373068133615,508.8734133754452 1097.9644943133615,497.7852883754453 Q1104.3916818133614,486.6726321254454 1104.3916818133614,463.3679446254455 Q1104.3916818133614,440.0632571254456 1097.9644943133615,428.9751321254457 Q1091.5373068133615,417.8624758754458 1078.1187130633616,417.8624758754458 Q1064.7001193133617,417.8624758754458 1058.2729318133618,428.9751321254457 Q1051.8457443133618,440.0632571254456 1051.8457443133618,463.3679446254455 Q1051.8457443133618,486.6726321254454 1058.2729318133618,497.7852883754453 Q1064.7001193133617,508.8734133754452 1078.1187130633616,508.8734133754452 Q1078.1187130633616,508.8734133754452 1078.1187130633616,508.8734133754452 ZM1047.8716818133619,478.0621633754454 C1047.8716818133619,478.0621633754454 1107.9241818133614,432.7038821254457 1107.9241818133614,432.7038821254457 C1107.9241818133614,432.7038821254457 1107.9241818133614,448.6737258754456 1107.9241818133614,448.6737258754456 C1107.9241818133614,448.6737258754456 1047.8716818133619,494.0320071254453 1047.8716818133619,494.0320071254453 C1047.8716818133619,494.0320071254453 1047.8716818133619,478.0621633754454 1047.8716818133619,478.0621633754454 ZM1287.2476312915096,406.84794462544585 C1287.2476312915096,406.84794462544585 1287.2476312915096,506.73919462544524 1287.2476312915096,506.73919462544524 C1287.2476312915096,506.73919462544524 1315.2132562915094,506.73919462544524 1315.2132562915094,506.73919462544524 C1315.2132562915094,506.73919462544524 1315.2132562915094,519.8879446254451 1315.2132562915094,519.8879446254451 C1315.2132562915094,519.8879446254451 1242.30638129151,519.8879446254451 1242.30638129151,519.8879446254451 C1242.30638129151,519.8879446254451 1242.30638129151,506.73919462544524 1242.30638129151,506.73919462544524 C1242.30638129151,506.73919462544524 1273.2648187915097,506.73919462544524 1273.2648187915097,506.73919462544524 C1273.2648187915097,506.73919462544524 1273.2648187915097,412.6373196254458 1273.2648187915097,412.6373196254458 C1273.2648187915097,412.6373196254458 1277.4841937915098,414.7715383754458 1277.4841937915098,414.7715383754458 C1277.4841937915098,414.7715383754458 1242.30638129151,437.5120071254456 1242.30638129151,437.5120071254456 C1242.30638129151,437.5120071254456 1242.30638129151,422.40075712544575 1242.30638129151,422.40075712544575 C1242.30638129151,422.40075712544575 1266.8866937915097,406.84794462544585 1266.8866937915097,406.84794462544585 C1266.8866937915097,406.84794462544585 1287.2476312915096,406.84794462544585 1287.2476312915096,406.84794462544585 ZM1473.758737019658,521.9976321254451 Q1453.692174519658,521.9976321254451 1443.585299519658,507.37700712544523 Q1433.4784245196581,492.7563821254453 1433.4784245196581,463.3679446254455 Q1433.4784245196581,433.9795071254457 1443.5117057696582,419.3588821254458 Q1453.544987019658,404.7382571254459 1473.758737019658,404.7382571254459 Q1493.8252995196578,404.7382571254459 1503.9321745196578,419.3588821254458 Q1514.0390495196577,433.9795071254457 1514.0390495196577,463.3679446254455 Q1514.0390495196577,492.7563821254453 1504.0057682696577,507.37700712544523 Q1493.9724870196578,521.9976321254451 1473.758737019658,521.9976321254451 Q1473.758737019658,521.9976321254451 1473.758737019658,521.9976321254451 ZM1473.758737019658,508.8734133754452 Q1487.1773307696578,508.8734133754452 1493.6045182696578,497.7852883754453 Q1500.0317057696577,486.6726321254454 1500.0317057696577,463.3679446254455 Q1500.0317057696577,440.0632571254456 1493.6045182696578,428.9751321254457 Q1487.1773307696578,417.8624758754458 1473.758737019658,417.8624758754458 Q1460.340143269658,417.8624758754458 1453.912955769658,428.9751321254457 Q1447.4857682696581,440.0632571254456 1447.4857682696581,463.3679446254455 Q1447.4857682696581,486.6726321254454 1453.912955769658,497.7852883754453 Q1460.340143269658,508.8734133754452 1473.758737019658,508.8734133754452 Q1473.758737019658,508.8734133754452 1473.758737019658,508.8734133754452 ZM1443.5117057696582,478.0621633754454 C1443.5117057696582,478.0621633754454 1503.5642057696577,432.7038821254457 1503.5642057696577,432.7038821254457 C1503.5642057696577,432.7038821254457 1503.5642057696577,448.6737258754456 1503.5642057696577,448.6737258754456 C1503.5642057696577,448.6737258754456 1443.5117057696582,494.0320071254453 1443.5117057696582,494.0320071254453 C1443.5117057696582,494.0320071254453 1443.5117057696582,478.0621633754454 1443.5117057696582,478.0621633754454 Z" fill="#a7e688"/>
		</g>
	</g>
	<g>
		<g transform="matrix(1,0,0,1,0,16.684596566)">
			<path d="M480,538.7527377848377 C500.55247230427,538.7527377848377 517.2472622151623,555.44752769573 517.2472622151623,576 C517.2472622151623,596.55247230427 500.55247230427,613.2472622151623 480,613.2472622151623 C459.44752769573,613.2472622151623 442.7527377848377,596.55247230427 442.7527377848377,576 C442.7527377848377,555.44752769573 459.44752769573,538.7527377848377 480,538.7527377848377 Z" fill="#fefefe"/>
		</g>
		<g transform="matrix(1,0,0,1,0,16.684596566)">
			<path d="M208.2189099705531,719.0249195975222 C208.2189099705531,719.0249195975222 463.9999999999999,600.023889079361 463.9999999999999,600.023889079361 C477.74206001823467,593.222756645159 470.1714076953349,567.6859294067197 455.1668632261053,568.4436843909734 C455.1668632261053,568.4436843909734 194.61618500970525,690.0600119739938 194.61618500970525,690.0600119739938 C194.61618500970525,690.0600119739938 181.01346004885744,661.0951043504656 181.01346004885744,661.0951043504656 C181.01346004885744,661.0951043504656 157.9701860548368,724.9465532270298 157.9701860548368,724.9465532270298 C157.9701860548368,724.9465532270298 221.82163493140098,747.9898272210505 221.82163493140098,747.9898272210505 C221.82163493140098,747.9898272210505 208.2189099705531,719.0249195975222 208.2189099705531,719.0249195975222 Z" fill="#e86060"/>
		</g>
		<g transform="matrix(1,0,0,1,0,16.684596566)">
			<path d="M464,232 C464,232 464,555.1435054090791 464,555.1435054090791 C469.49343883059714,562.262178488821 491.75341655613926,560 496,554.2395469227627 C496,554.2395469227627 496,232 496,232 C496,232 528,232 528,232 C528,232 480,184 480,184 C480,184 432,232 432,232 C432,232 464,232 464,232 Z" fill="#a8e689"/>
		</g>
		<g transform="matrix(1,0,0,1,0,16.684596566)">
			<path d="M785.3522509760252,652.8976801856272 C785.3522509760252,652.8976801856272 506.32974714799195,572.0927270275124 506.32974714799195,572.0927270275124 C490.84945806982284,571.6407477843543 485.7646915842935,592.0000000000002 497.17716747403813,599.4374712385845 C497.17716747403813,599.4374712385845 776.6524457397588,683.6923776001338 776.6524457397588,683.6923776001338 C776.6524457397588,683.6923776001338 767.9526405034921,714.4870750146404 767.9526405034921,714.4870750146404 C767.9526405034921,714.4870750146404 827.1943944796523,681.3447367472802 827.1943944796523,681.3447367472802 C827.1943944796523,681.3447367472802 794.0520562122919,622.1029827711204 794.0520562122919,622.1029827711204 C794.0520562122919,622.1029827711204 785.3522509760252,652.8976801856272 785.3522509760252,652.8976801856272 Z" fill="#6ea9f3"/>
		</g>
	</g>
</g></g></svg>